:SAMPLES-PER-SECOND 30
:FULLY-SPECIFIED
:DEGREES
604
root  19.5291 33.3414 24.0361 4.6019 76.6389 -6.76716
LeftUpLeg  -3.82412 3.73306 -1.95508
LeftLeg  22.3378 1.54572 0.519136
LeftFoot  -16.8051 -0.0652619 -0.441822
LeftToes  -7.4428 2.60077e-006 -1.42232e-007
Spine  4.07535 -3.8844 0.292666
Spine1  8.09368 -7.87656 0.497777
RightShoulder  -0.00607317 2.49822 4.56787
RightArm  -32.4947 -41.2683 44.2315
RightForeArm  91.9678 79.6931 78.6007
RightHand  -0.0624166 0.55205 -12.681
LeftShoulder1  0.0135931 -0.641341 -4.57872
LeftArm  -25.7558 18.4779 -61.8405
LeftForeArm  31.4065 -27.0029 -5.14546
LeftHand  0.0347094 1.95265 1.63759
HEad  -22.0538 -61.8576 20.1617
RightUpLeg  -36.3775 -7.67361 7.43314
RightLeg  17.2848 3.87991 0.937982
RightFoot  8.83538 -0.01781 0.608031
RightToes  -24.5184 -0.108053 -0.212122
605
root  21.001 33.0676 24.1315 3.7395 78.967 -7.25882
LeftUpLeg  -3.28895 3.40433 -1.65053
LeftLeg  27.2638 -0.0244125 -0.0139823
LeftFoot  -17.4127 0.00534516 0.0348959
LeftToes  -13.2254 2.60077e-006 -1.42232e-007
Spine  4.10547 -4.23955 0.585213
Spine1  8.12447 -8.61927 1.04658
RightShoulder  -0.00363854 2.37463 5.00315
RightArm  -32.7863 -41.1222 43.1475
RightForeArm  87.7246 79.5046 74.1615
RightHand  -0.0551874 0.47855 -12.9634
LeftShoulder1  0.0147888 -0.826826 -4.82986
LeftArm  -25.3458 18.1008 -61.7659
LeftForeArm  30.6404 -28.6201 -5.51245
LeftHand  0.0369773 1.87019 1.72906
HEad  -24.1174 -62.7603 21.8393
RightUpLeg  -37.1108 -6.26821 6.30817
RightLeg  18.2734 8.65215 2.24327
RightFoot  12.4104 -0.167182 1.91498
RightToes  -26.8151 -0.122615 -0.229232
606
root  22.4662 32.8127 24.1992 1.62185 80.5645 -8.46829
LeftUpLeg  -3.75213 3.645 -1.05269
LeftLeg  35.2855 -1.42084 -0.878601
LeftFoot  -15.7732 0.0652543 0.47106
LeftToes  -25.8201 2.60077e-006 -1.42232e-007
Spine  4.36142 -4.36566 0.880408
Spine1  8.61677 -8.89058 1.57848
RightShoulder  -0.00115952 2.23092 5.47983
RightArm  -34.2075 -40.0972 43.0546
RightForeArm  82.6056 79.1254 68.0279
RightHand  -0.0735551 0.625862 -13.1731
LeftShoulder1  0.0156996 -1.0404 -5.17801
LeftArm  -25.2301 17.8622 -62.0966
LeftForeArm  29.8054 -31.1064 -6.10004
LeftHand  0.0413234 1.81244 2.19706
HEad  -26.3079 -63.528 23.7427
RightUpLeg  -38.1727 -5.69604 4.84847
RightLeg  27.5707 7.52086 3.3124
RightFoot  8.75995 -0.0658703 1.23742
RightToes  -20.3029 -0.0831535 -0.179253
607
root  23.7821 32.7174 24.2252 -2.99384 80.5751 -12.0904
LeftUpLeg  -5.63162 6.10379 0.363089
LeftLeg  45.4385 -3.00216 -2.68337
LeftFoot  -11.2354 0.077316 0.786004
LeftToes  -35.1982 2.60077e-006 -1.42232e-007
Spine  4.66472 -4.03254 1.26197
Spine1  9.2066 -8.24845 2.29203
RightShoulder  0.00141599 2.20137 5.89247
RightArm  -36.3048 -37.9732 43.6531
RightForeArm  76.0177 78.3871 60.0497
RightHand  -0.0881623 0.702382 -14.0688
LeftShoulder1  0.0163558 -0.956186 -5.45617
LeftArm  -25.4105 17.7976 -63.307
LeftForeArm  29.1597 -33.8875 -6.79617
LeftHand  0.0477645 1.59413 2.82597
HEad  -27.171 -64.3225 24.923
RightUpLeg  -38.3878 -8.37153 5.50349
RightLeg  34.9557 9.42239 5.66656
RightFoot  4.22117 -0.0154749 0.79732
RightToes  -17.074 -0.0657549 -0.15289
608
root  24.9249 32.7169 24.212 -3.02459 79.4963 -11.6985
LeftUpLeg  -8.64998 9.19664 1.241
LeftLeg  55.3341 -3.35739 -4.24267
LeftFoot  -7.84788 0.0500841 0.730144
LeftToes  -30.6076 2.60077e-006 -1.42232e-007
Spine  4.67691 -3.49627 1.43545
Spine1  9.23007 -7.17736 2.63709
RightShoulder  0.00480909 1.88718 6.17531
RightArm  -38.4143 -35.0587 44.6939
RightForeArm  74.7191 77.9962 56.8461
RightHand  -0.122356 0.942335 -14.5262
LeftShoulder1  0.0167878 -0.684079 -5.59511
LeftArm  -25.3355 18.551 -64.6896
LeftForeArm  28.1748 -36.5366 -7.50446
LeftHand  0.051894 1.40595 3.22165
HEad  -27.0899 -64.8693 25.0773
RightUpLeg  -37.2269 -8.58587 5.2514
RightLeg  37.6857 9.89957 6.60026
RightFoot  1.41782 0.00118204 0.281878
RightToes  -17.8037 -0.0629014 -0.158932
609
root  25.9244 32.8462 24.1533 -1.89558 77.711 -10.3634
LeftUpLeg  -11.5554 11.6676 1.7109
LeftLeg  62.0975 -0.496958 -0.819619
LeftFoot  -8.94779 0.0103815 0.132674
LeftToes  -27.862 2.60077e-006 -1.42232e-007
Spine  4.7673 -3.0281 1.51185
Spine1  9.41374 -6.22581 2.74506
RightShoulder  0.01012 1.99947 6.66931
RightArm  -40.1505 -30.9672 45.6535
RightForeArm  73.4107 77.6608 54.4476
RightHand  -0.168367 1.25296 -15.0139
LeftShoulder1  0.017026 -0.504429 -5.86517
LeftArm  -25.4486 19.7147 -65.6788
LeftForeArm  27.3525 -38.8099 -8.15339
LeftHand  0.0512857 1.47699 3.28022
HEad  -27.1076 -64.726 25
RightUpLeg  -35.8326 -7.4835 4.63098
RightLeg  38.8427 10.1494 7.05894
RightFoot  0.0643597 0.000213936 -0.00332589
RightToes  -18.8214 -0.066338 -0.167279
610
root  26.8217 33.1107 24.0426 -0.586431 75.8954 -8.84307
LeftUpLeg  -13.9535 13.1966 2.24314
LeftLeg  65.165 1.24707 2.28096
LeftFoot  -10.0044 -0.0412638 -0.471447
LeftToes  -23.4486 2.60077e-006 -1.42232e-007
Spine  4.88636 -2.73922 1.47563
Spine1  9.64766 -5.60467 2.57096
RightShoulder  0.0192573 2.45424 7.14418
RightArm  -40.4175 -26.0396 46.5013
RightForeArm  70.0294 76.8156 49.4088
RightHand  -0.219562 1.51377 -16.2041
LeftShoulder1  0.0171009 -0.348333 -6.08352
LeftArm  -25.2287 20.632 -66.2709
LeftForeArm  27.2282 -39.5616 -8.37735
LeftHand  0.0480809 1.54728 3.1753
HEad  -26.0135 -64.05 24.033
RightUpLeg  -33.8379 -6.68607 3.97626
RightLeg  38.2443 10.7353 7.2968
RightFoot  -0.363783 -0.00152867 -0.104177
RightToes  -18.6959 -0.0725262 -0.166255
611
root  27.5955 33.4328 23.8663 0.624805 73.937 -7.29295
LeftUpLeg  -15.8529 13.8712 3.02782
LeftLeg  64.8244 1.16149 2.09398
LeftFoot  -10.3152 -0.0403727 -0.447295
LeftToes  -23.2421 2.60077e-006 -1.42232e-007
Spine  4.94192 -2.34096 1.38672
Spine1  9.74536 -4.74252 2.29362
RightShoulder  0.0289621 2.48832 7.31674
RightArm  -39.3505 -20.6347 47.2848
RightForeArm  67.1137 75.538 43.572
RightHand  -0.277395 1.80741 -17.1409
LeftShoulder1  0.0170427 -0.149139 -6.278
LeftArm  -24.8884 20.6975 -66.7207
LeftForeArm  27.8785 -38.7252 -8.12831
LeftHand  0.0333016 1.53555 2.10517
HEad  -24.0888 -63.4487 22.075
RightUpLeg  -31.1002 -5.63132 3.23162
RightLeg  35.6692 11.1555 6.87828
RightFoot  0.0104477 3.6163e-005 -0.0179844
RightToes  -19.3612 -0.0779266 -0.171667
612
root  28.2592 33.7468 23.6335 1.52758 71.626 -5.89118
LeftUpLeg  -17.1096 13.9228 4.07651
LeftLeg  61.6493 0.659531 1.0428
LeftFoot  -10.2273 -0.021002 -0.2347
LeftToes  -24.41 2.60077e-006 -1.42232e-007
Spine  5.02563 -1.73365 1.24508
Spine1  9.88844 -3.43536 1.89968
RightShoulder  0.041134 2.72925 7.65452
RightArm  -37.8162 -15.814 47.4808
RightForeArm  64.3821 74.4023 39.5296
RightHand  -0.32938 2.05326 -17.9118
LeftShoulder1  0.016882 -0.193814 -6.45957
LeftArm  -24.3281 20.4574 -66.7522
LeftForeArm  27.8491 -37.7779 -7.85365
LeftHand  0.0174904 1.57232 0.900621
HEad  -22.8614 -62.2886 20.9392
RightUpLeg  -28.713 -4.70141 2.52625
RightLeg  33.4241 11.6678 6.58265
RightFoot  1.04796 0.00134509 0.230315
RightToes  -20.1931 -0.0825377 -0.178373
613
root  28.8549 34.0321 23.35 2.13819 69.3431 -4.86956
LeftUpLeg  -17.9239 13 5.34953
LeftLeg  56.4619 0.895401 1.16931
LeftFoot  -9.27139 -0.0202112 -0.249268
LeftToes  -24.5887 2.60077e-006 -1.42232e-007
Spine  5.09204 -1.11683 1.11245
Spine1  9.98 -2.08887 1.50363
RightShoulder  0.0553075 3.03688 7.78294
RightArm  -36.1451 -11.2659 47.8569
RightForeArm  62.9119 73.336 36.392
RightHand  -0.389002 2.33034 -18.6331
LeftShoulder1  0.0166491 -0.282239 -6.52446
LeftArm  -23.8558 20.1767 -66.6893
LeftForeArm  27.6204 -37.1021 -7.66224
LeftHand  0.00827136 1.70033 0.186664
HEad  -22.5383 -60.8065 20.8959
RightUpLeg  -26.8126 -4.06325 1.78845
RightLeg  31.6188 12.4794 6.53082
RightFoot  2.29355 -0.00369964 0.562194
RightToes  -21.046 -0.0873663 -0.185179
